<?xml version="1.0" standalone="no"?><!DOCTYPE svg PUBLIC "-//W3C//DTD SVG 1.1//EN" "http://www.w3.org/Graphics/SVG/1.1/DTD/svg11.dtd"><svg t="1583594433396" class="icon" viewBox="0 0 1024 1024" version="1.1" xmlns="http://www.w3.org/2000/svg" p-id="4340" xmlns:xlink="http://www.w3.org/1999/xlink" width="64" height="64"><defs><style type="text/css"></style></defs><path d="M288.4 333.8c12.5 12.5 32.8 12.5 45.3 0s12.5-32.8 0-45.3l-181.1-181c-12.5-12.5-32.8-12.5-45.3 0s-12.5 32.8 0 45.3l181.1 181zM920.2 875.1l-181-181c-12.5-12.5-32.8-12.5-45.3 0s-12.5 32.8 0 45.3l181.1 181c12.5 12.5 32.8 12.5 45.3 0 12.4-12.5 12.4-32.8-0.1-45.3zM246 631.9c8.2 0 16.4-3.1 22.6-9.4 12.5-12.5 12.5-32.8 0-45.3L179.4 488c-20.2-20.2-20.2-53.1 0-73.4l30.2-30.2c12.5-12.5 12.5-32.8 0-45.3s-32.8-12.5-45.3 0l-30.2 30.2c-45.2 45.2-45.2 118.7 0 163.9l89.2 89.2c6.4 6.4 14.6 9.5 22.7 9.5zM642.8 815.2l-31.5 31.5c-9.7 9.7-22.8 15.1-36.7 15.1-13.9 0-26.9-5.4-36.7-15.1l-91.4-91.4c-12.5-12.5-32.8-12.5-45.3 0s-12.5 32.8 0 45.3l91.4 91.4c21.8 21.8 50.9 33.8 81.9 33.8s60.1-12 81.9-33.8l31.5-31.5c12.5-12.5 12.5-32.8 0-45.3-12.3-12.5-32.6-12.5-45.1 0zM753.6 405.8c-12.5 12.5-12.5 32.8 0 45.3l90 90c20.2 20.2 20.2 53.1 0 73.4l-29 29c-12.5 12.5-12.5 32.8 0 45.3 6.2 6.2 14.4 9.4 22.6 9.4s16.4-3.1 22.6-9.4l29-29c45.2-45.2 45.2-118.7 0-163.9l-90-90c-12.4-12.6-32.7-12.6-45.2-0.1zM383.5 210.7l28.2-28.2c9.7-9.7 22.8-15.1 36.7-15.1 13.9 0 26.9 5.4 36.7 15.1l86.1 86.1c6.2 6.2 14.4 9.4 22.6 9.4s16.4-3.1 22.6-9.4c12.5-12.5 12.5-32.8 0-45.3l-86.1-86.1c-21.8-21.8-50.9-33.8-81.9-33.8-31 0-60.1 12-81.9 33.8l-28.2 28.2c-12.5 12.5-12.5 32.8 0 45.3 12.4 12.5 32.7 12.5 45.2 0zM829.9 194.3c-12.4-12.4-32.8-12.4-45.3 0L195 784c-12.4 12.4-12.4 32.8 0 45.3 12.4 12.4 32.8 12.4 45.3 0L830 239.6c12.3-12.5 12.3-32.8-0.1-45.3z" p-id="4341" fill="#747474"></path></svg>