<?xml version="1.0" standalone="no"?><!DOCTYPE svg PUBLIC "-//W3C//DTD SVG 1.1//EN" "http://www.w3.org/Graphics/SVG/1.1/DTD/svg11.dtd"><svg t="1582556687450" class="icon" viewBox="0 0 1024 1024" version="1.1" xmlns="http://www.w3.org/2000/svg" p-id="1516" xmlns:xlink="http://www.w3.org/1999/xlink" width="32" height="32"><defs><style type="text/css"></style></defs><path d="M862.6 129.4l0.1 0.1V897l-0.1 0.1H160.8l-0.1-0.1V129.5l0.1-0.1h701.8m0.1-64h-702c-35.2 0-64 28.8-64 64v767.7c0 35.2 28.8 64 64 64h702c35.2 0 64-28.8 64-64V129.4c0-35.2-28.8-64-64-64z" p-id="1517" fill="#d7dae0"></path><path d="M702.1 289.5H318.8c-17.7 0-32-14.3-32-32s14.3-32 32-32h383.3c17.7 0 32 14.3 32 32s-14.4 32-32 32zM702.1 417.3H318.8c-17.7 0-32-14.3-32-32s14.3-32 32-32h383.3c17.7 0 32 14.3 32 32s-14.4 32-32 32zM446.8 546.5h-128c-17.7 0-32-14.3-32-32s14.3-32 32-32h128c17.7 0 32 14.3 32 32s-14.3 32-32 32zM639.4 774.2c-72.9 0-132.2-59.3-132.2-132.2s59.3-132.2 132.2-132.2S771.7 569 771.7 641.9s-59.3 132.3-132.3 132.3z m0-214.5c-45.4 0-82.2 36.9-82.2 82.2s36.9 82.2 82.2 82.2 82.2-36.9 82.2-82.2-36.8-82.2-82.2-82.2z" p-id="1518" fill="#d7dae0"></path><path d="M806.3 833.3c-6.4 0-12.8-2.4-17.7-7.3l-85.3-85.5c-9.8-9.8-9.7-25.6 0-35.4 9.8-9.8 25.6-9.7 35.4 0l85.3 85.5c9.8 9.8 9.7 25.6 0 35.4-4.9 4.8-11.3 7.3-17.7 7.3z" p-id="1519" fill="#d7dae0"></path></svg>